<svg width="100%" viewBox="0 0 680 560">
<defs><marker id="arrow" viewBox="0 0 10 10" refX="8" refY="5" markerWidth="6" markerHeight="6" orient="auto-start-reverse"><path d="M2 1L8 5L2 9" fill="none" stroke="context-stroke" stroke-width="1.5" stroke-linecap="round" stroke-linejoin="round"/></marker></defs>

<!-- Layer stack -->
<g class="c-amber"><rect x="200" y="20" width="200" height="32" rx="6" stroke-width="0.5"/><text class="th" x="300" y="40" text-anchor="middle" dominant-baseline="central">Layer 0: Attention</text></g>
<g class="c-blue"><rect x="200" y="58" width="200" height="32" rx="6" stroke-width="0.5"/><text class="ts" x="300" y="78" text-anchor="middle" dominant-baseline="central">Layer 1: Routing</text></g>
<g class="c-blue"><rect x="200" y="96" width="200" height="32" rx="6" stroke-width="0.5"/><text class="ts" x="300" y="116" text-anchor="middle" dominant-baseline="central">Layer 2: Routing</text></g>
<g class="c-blue"><rect x="200" y="134" width="200" height="32" rx="6" stroke-width="0.5"/><text class="ts" x="300" y="154" text-anchor="middle" dominant-baseline="central">Layer 3: Routing</text></g>

<g class="c-amber"><rect x="200" y="178" width="200" height="32" rx="6" stroke-width="0.5"/><text class="th" x="300" y="198" text-anchor="middle" dominant-baseline="central">Layer 4: Attention</text></g>
<g class="c-blue"><rect x="200" y="216" width="200" height="32" rx="6" stroke-width="0.5"/><text class="ts" x="300" y="236" text-anchor="middle" dominant-baseline="central">Layer 5: Routing</text></g>
<g class="c-blue"><rect x="200" y="254" width="200" height="32" rx="6" stroke-width="0.5"/><text class="ts" x="300" y="274" text-anchor="middle" dominant-baseline="central">Layer 6: Routing</text></g>
<g class="c-blue"><rect x="200" y="292" width="200" height="32" rx="6" stroke-width="0.5"/><text class="ts" x="300" y="312" text-anchor="middle" dominant-baseline="central">Layer 7: Routing</text></g>

<g class="c-amber"><rect x="200" y="336" width="200" height="32" rx="6" stroke-width="0.5"/><text class="th" x="300" y="356" text-anchor="middle" dominant-baseline="central">Layer 8: Attention</text></g>
<g class="c-blue"><rect x="200" y="374" width="200" height="32" rx="6" stroke-width="0.5"/><text class="ts" x="300" y="394" text-anchor="middle" dominant-baseline="central">Layer 9: Routing</text></g>
<g class="c-blue"><rect x="200" y="412" width="200" height="32" rx="6" stroke-width="0.5"/><text class="ts" x="300" y="432" text-anchor="middle" dominant-baseline="central">Layer 10: Routing</text></g>
<g class="c-blue"><rect x="200" y="450" width="200" height="32" rx="6" stroke-width="0.5"/><text class="ts" x="300" y="470" text-anchor="middle" dominant-baseline="central">Layer 11: Routing</text></g>

<!-- Right annotations -->
<text class="ts" x="420" y="40" text-anchor="start">Build initial representations</text>
<line class="leader" x1="400" y1="36" x2="416" y2="36"/>

<text class="ts" x="420" y="198" text-anchor="start">Periodic attention anchor</text>
<line class="leader" x1="400" y1="194" x2="416" y2="194"/>

<text class="ts" x="420" y="356" text-anchor="start">Correct routing drift</text>
<line class="leader" x1="400" y1="352" x2="416" y2="352"/>

<!-- Left annotations -->
<text class="ts" x="180" y="116" text-anchor="end" opacity="0.5">O(n·k)</text>
<text class="ts" x="180" y="40" text-anchor="end" opacity="0.5">O(n²)</text>

<!-- Summary stats -->
<line x1="40" y1="500" x2="640" y2="500" stroke="var(--t)" stroke-width="0.5" opacity="0.15"/>

<text class="ts" x="120" y="528" text-anchor="middle">75% routing layers</text>
<text class="ts" x="120" y="544" text-anchor="middle" opacity="0.5">cheap, O(n·k)</text>

<text class="ts" x="340" y="528" text-anchor="middle">25% attention layers</text>
<text class="ts" x="340" y="544" text-anchor="middle" opacity="0.5">expressive, O(n²)</text>

<text class="ts" x="560" y="528" text-anchor="middle">Same as Qwen 3.5</text>
<text class="ts" x="560" y="544" text-anchor="middle" opacity="0.5">3:1 hybrid ratio</text>

</svg>