<svg width="100%" viewBox="0 0 680 480">
<defs><marker id="arrow" viewBox="0 0 10 10" refX="8" refY="5" markerWidth="6" markerHeight="6" orient="auto-start-reverse"><path d="M2 1L8 5L2 9" fill="none" stroke="context-stroke" stroke-width="1.5" stroke-linecap="round" stroke-linejoin="round"/></marker></defs>

<!-- Input token -->
<g class="c-amber">
<rect x="40" y="62" width="80" height="36" rx="8" stroke-width="0.5"/>
<text class="th" x="80" y="80" text-anchor="middle" dominant-baseline="central">Token</text>
</g>

<!-- Arrow to router -->
<line x1="120" y1="80" x2="160" y2="80" stroke="var(--t)" stroke-width="1" marker-end="url(#arrow)"/>

<!-- Router -->
<g class="c-gray">
<rect x="162" y="62" width="80" height="36" rx="8" stroke-width="0.5"/>
<text class="th" x="202" y="80" text-anchor="middle" dominant-baseline="central">Router</text>
</g>

<!-- Arrows from router to active experts -->
<line x1="242" y1="72" x2="296" y2="46" stroke="#639922" stroke-width="1.5" marker-end="url(#arrow)"/>
<line x1="242" y1="88" x2="296" y2="106" stroke="#639922" stroke-width="1.5" marker-end="url(#arrow)"/>

<!-- Arrows from router to inactive (grayed) -->
<line x1="242" y1="80" x2="370" y2="46" stroke="var(--t)" stroke-width="0.5" opacity="0.15" marker-end="url(#arrow)"/>
<line x1="242" y1="80" x2="370" y2="106" stroke="var(--t)" stroke-width="0.5" opacity="0.15" marker-end="url(#arrow)"/>
<line x1="242" y1="80" x2="444" y2="46" stroke="var(--t)" stroke-width="0.5" opacity="0.15" marker-end="url(#arrow)"/>
<line x1="242" y1="80" x2="444" y2="106" stroke="var(--t)" stroke-width="0.5" opacity="0.15" marker-end="url(#arrow)"/>
<line x1="242" y1="80" x2="518" y2="46" stroke="var(--t)" stroke-width="0.5" opacity="0.15" marker-end="url(#arrow)"/>
<line x1="242" y1="80" x2="518" y2="106" stroke="var(--t)" stroke-width="0.5" opacity="0.15" marker-end="url(#arrow)"/>

<!-- Expert boxes row 1 -->
<g class="c-green"><rect x="298" y="26" width="60" height="36" rx="6" stroke-width="0.5"/><text class="th" x="328" y="48" text-anchor="middle" dominant-baseline="central">E1</text></g>
<rect x="372" y="26" width="60" height="36" rx="6" fill="var(--t)" opacity="0.08" stroke="var(--t)" stroke-width="0.5" stroke-opacity="0.15"/><text class="ts" x="402" y="48" text-anchor="middle" dominant-baseline="central" opacity="0.3">E2</text>
<rect x="446" y="26" width="60" height="36" rx="6" fill="var(--t)" opacity="0.08" stroke="var(--t)" stroke-width="0.5" stroke-opacity="0.15"/><text class="ts" x="476" y="48" text-anchor="middle" dominant-baseline="central" opacity="0.3">E3</text>
<rect x="520" y="26" width="60" height="36" rx="6" fill="var(--t)" opacity="0.08" stroke="var(--t)" stroke-width="0.5" stroke-opacity="0.15"/><text class="ts" x="550" y="48" text-anchor="middle" dominant-baseline="central" opacity="0.3">E4</text>

<!-- Expert boxes row 2 -->
<g class="c-green"><rect x="298" y="86" width="60" height="36" rx="6" stroke-width="0.5"/><text class="th" x="328" y="108" text-anchor="middle" dominant-baseline="central">E5</text></g>
<rect x="372" y="86" width="60" height="36" rx="6" fill="var(--t)" opacity="0.08" stroke="var(--t)" stroke-width="0.5" stroke-opacity="0.15"/><text class="ts" x="402" y="108" text-anchor="middle" dominant-baseline="central" opacity="0.3">E6</text>
<rect x="446" y="86" width="60" height="36" rx="6" fill="var(--t)" opacity="0.08" stroke="var(--t)" stroke-width="0.5" stroke-opacity="0.15"/><text class="ts" x="476" y="108" text-anchor="middle" dominant-baseline="central" opacity="0.3">E7</text>
<rect x="520" y="86" width="60" height="36" rx="6" fill="var(--t)" opacity="0.08" stroke="var(--t)" stroke-width="0.5" stroke-opacity="0.15"/><text class="ts" x="550" y="108" text-anchor="middle" dominant-baseline="central" opacity="0.3">E8</text>

<!-- Combine outputs -->
<line x1="358" y1="44" x2="616" y2="72" stroke="#639922" stroke-width="1" opacity="0.6" marker-end="url(#arrow)"/>
<line x1="358" y1="104" x2="616" y2="88" stroke="#639922" stroke-width="1" opacity="0.6" marker-end="url(#arrow)"/>
<g class="c-gray"><rect x="618" y="62" width="44" height="36" rx="8" stroke-width="0.5"/><text class="th" x="640" y="80" text-anchor="middle" dominant-baseline="central">Σ</text></g>

<!-- Divider -->
<line x1="40" y1="160" x2="640" y2="160" stroke="var(--t)" stroke-width="0.5" opacity="0.15"/>

<!-- Different tokens, different experts -->
<text class="th" x="340" y="190" text-anchor="middle">Different tokens activate different expert pairs</text>

<!-- Token A -->
<g class="c-amber"><rect x="50" y="220" width="72" height="30" rx="6" stroke-width="0.5"/><text class="ts" x="86" y="239" text-anchor="middle" dominant-baseline="central">"The"</text></g>
<g class="c-green"><rect x="146" y="216" width="30" height="18" rx="4" stroke-width="0.5"/><text class="ts" x="161" y="229" text-anchor="middle" dominant-baseline="central">1</text></g>
<g class="c-green"><rect x="182" y="216" width="30" height="18" rx="4" stroke-width="0.5"/><text class="ts" x="197" y="229" text-anchor="middle" dominant-baseline="central">5</text></g>
<rect x="218" y="216" width="30" height="18" rx="4" fill="var(--t)" opacity="0.08" stroke="var(--t)" stroke-width="0.3" stroke-opacity="0.15"/>
<rect x="254" y="216" width="30" height="18" rx="4" fill="var(--t)" opacity="0.08" stroke="var(--t)" stroke-width="0.3" stroke-opacity="0.15"/>
<rect x="290" y="216" width="30" height="18" rx="4" fill="var(--t)" opacity="0.08" stroke="var(--t)" stroke-width="0.3" stroke-opacity="0.15"/>
<rect x="326" y="216" width="30" height="18" rx="4" fill="var(--t)" opacity="0.08" stroke="var(--t)" stroke-width="0.3" stroke-opacity="0.15"/>
<rect x="362" y="216" width="30" height="18" rx="4" fill="var(--t)" opacity="0.08" stroke="var(--t)" stroke-width="0.3" stroke-opacity="0.15"/>
<rect x="398" y="216" width="30" height="18" rx="4" fill="var(--t)" opacity="0.08" stroke="var(--t)" stroke-width="0.3" stroke-opacity="0.15"/>

<!-- Token B -->
<g class="c-amber"><rect x="50" y="264" width="72" height="30" rx="6" stroke-width="0.5"/><text class="ts" x="86" y="283" text-anchor="middle" dominant-baseline="central">"cat"</text></g>
<rect x="146" y="260" width="30" height="18" rx="4" fill="var(--t)" opacity="0.08" stroke="var(--t)" stroke-width="0.3" stroke-opacity="0.15"/>
<rect x="182" y="260" width="30" height="18" rx="4" fill="var(--t)" opacity="0.08" stroke="var(--t)" stroke-width="0.3" stroke-opacity="0.15"/>
<g class="c-green"><rect x="218" y="260" width="30" height="18" rx="4" stroke-width="0.5"/><text class="ts" x="233" y="273" text-anchor="middle" dominant-baseline="central">3</text></g>
<rect x="254" y="260" width="30" height="18" rx="4" fill="var(--t)" opacity="0.08" stroke="var(--t)" stroke-width="0.3" stroke-opacity="0.15"/>
<rect x="290" y="260" width="30" height="18" rx="4" fill="var(--t)" opacity="0.08" stroke="var(--t)" stroke-width="0.3" stroke-opacity="0.15"/>
<rect x="326" y="260" width="30" height="18" rx="4" fill="var(--t)" opacity="0.08" stroke="var(--t)" stroke-width="0.3" stroke-opacity="0.15"/>
<g class="c-green"><rect x="362" y="260" width="30" height="18" rx="4" stroke-width="0.5"/><text class="ts" x="377" y="273" text-anchor="middle" dominant-baseline="central">7</text></g>
<rect x="398" y="260" width="30" height="18" rx="4" fill="var(--t)" opacity="0.08" stroke="var(--t)" stroke-width="0.3" stroke-opacity="0.15"/>

<!-- Token C -->
<g class="c-amber"><rect x="50" y="308" width="72" height="30" rx="6" stroke-width="0.5"/><text class="ts" x="86" y="327" text-anchor="middle" dominant-baseline="central">"sat"</text></g>
<rect x="146" y="304" width="30" height="18" rx="4" fill="var(--t)" opacity="0.08" stroke="var(--t)" stroke-width="0.3" stroke-opacity="0.15"/>
<g class="c-green"><rect x="182" y="304" width="30" height="18" rx="4" stroke-width="0.5"/><text class="ts" x="197" y="317" text-anchor="middle" dominant-baseline="central">2</text></g>
<rect x="218" y="304" width="30" height="18" rx="4" fill="var(--t)" opacity="0.08" stroke="var(--t)" stroke-width="0.3" stroke-opacity="0.15"/>
<rect x="254" y="304" width="30" height="18" rx="4" fill="var(--t)" opacity="0.08" stroke="var(--t)" stroke-width="0.3" stroke-opacity="0.15"/>
<rect x="290" y="304" width="30" height="18" rx="4" fill="var(--t)" opacity="0.08" stroke="var(--t)" stroke-width="0.3" stroke-opacity="0.15"/>
<g class="c-green"><rect x="326" y="304" width="30" height="18" rx="4" stroke-width="0.5"/><text class="ts" x="341" y="317" text-anchor="middle" dominant-baseline="central">6</text></g>
<rect x="362" y="304" width="30" height="18" rx="4" fill="var(--t)" opacity="0.08" stroke="var(--t)" stroke-width="0.3" stroke-opacity="0.15"/>
<rect x="398" y="304" width="30" height="18" rx="4" fill="var(--t)" opacity="0.08" stroke="var(--t)" stroke-width="0.3" stroke-opacity="0.15"/>

<!-- Token D -->
<g class="c-amber"><rect x="50" y="352" width="72" height="30" rx="6" stroke-width="0.5"/><text class="ts" x="86" y="371" text-anchor="middle" dominant-baseline="central">"on"</text></g>
<g class="c-green"><rect x="146" y="348" width="30" height="18" rx="4" stroke-width="0.5"/><text class="ts" x="161" y="361" text-anchor="middle" dominant-baseline="central">1</text></g>
<rect x="182" y="348" width="30" height="18" rx="4" fill="var(--t)" opacity="0.08" stroke="var(--t)" stroke-width="0.3" stroke-opacity="0.15"/>
<rect x="218" y="348" width="30" height="18" rx="4" fill="var(--t)" opacity="0.08" stroke="var(--t)" stroke-width="0.3" stroke-opacity="0.15"/>
<g class="c-green"><rect x="254" y="348" width="30" height="18" rx="4" stroke-width="0.5"/><text class="ts" x="269" y="361" text-anchor="middle" dominant-baseline="central">4</text></g>
<rect x="290" y="348" width="30" height="18" rx="4" fill="var(--t)" opacity="0.08" stroke="var(--t)" stroke-width="0.3" stroke-opacity="0.15"/>
<rect x="326" y="348" width="30" height="18" rx="4" fill="var(--t)" opacity="0.08" stroke="var(--t)" stroke-width="0.3" stroke-opacity="0.15"/>
<rect x="362" y="348" width="30" height="18" rx="4" fill="var(--t)" opacity="0.08" stroke="var(--t)" stroke-width="0.3" stroke-opacity="0.15"/>
<rect x="398" y="348" width="30" height="18" rx="4" fill="var(--t)" opacity="0.08" stroke="var(--t)" stroke-width="0.3" stroke-opacity="0.15"/>

<!-- Labels -->
<text class="ts" x="455" y="229" text-anchor="start">E1, E5</text>
<text class="ts" x="455" y="273" text-anchor="start">E3, E7</text>
<text class="ts" x="455" y="317" text-anchor="start">E2, E6</text>
<text class="ts" x="455" y="361" text-anchor="start">E1, E4</text>

<!-- Summary -->
<text class="ts" x="340" y="410" text-anchor="middle">Each token uses 25% of the FFN compute.</text>
<text class="ts" x="340" y="428" text-anchor="middle">Across a batch, all 8 experts get used — full capacity, fractional cost.</text>

</svg>